<svg width="24" height="25" viewBox="0 0 24 25" fill="none" xmlns="http://www.w3.org/2000/svg">
<g clip-path="url(#clip0_21_472)">
<path d="M12.1249 0.494141C5.42913 0.494141 0 5.92327 0 12.619C0 19.3148 5.42913 24.7439 12.1249 24.7439C18.8206 24.7439 24.2498 19.3148 24.2498 12.619C24.2498 5.92327 18.8206 0.494141 12.1249 0.494141ZM12.1249 22.687C6.56584 22.687 2.0569 18.1781 2.0569 12.619C2.0569 7.05998 6.56584 2.55104 12.1249 2.55104C17.6839 2.55104 22.1929 7.05998 22.1929 12.619C22.1929 18.1781 17.6839 22.687 12.1249 22.687Z" fill="#00CFDE"/>
<path d="M11 7.79324C11 8.13778 11.1369 8.46821 11.3805 8.71183C11.6241 8.95546 11.9546 9.09233 12.2991 9.09233C12.6436 9.09233 12.9741 8.95546 13.2177 8.71183C13.4613 8.46821 13.5982 8.13778 13.5982 7.79324C13.5982 7.44869 13.4613 7.11826 13.2177 6.87464C12.9741 6.63101 12.6436 6.49414 12.2991 6.49414C11.9546 6.49414 11.6241 6.63101 11.3805 6.87464C11.1369 7.11826 11 7.44869 11 7.79324ZM12.9486 10.8245H11.6495C11.5305 10.8245 11.433 10.9219 11.433 11.041V18.4025C11.433 18.5216 11.5305 18.619 11.6495 18.619H12.9486C13.0677 18.619 13.1652 18.5216 13.1652 18.4025V11.041C13.1652 10.9219 13.0677 10.8245 12.9486 10.8245Z" fill="#00CFDE"/>
</g>
<defs>
<clipPath id="clip0_21_472">
<rect width="24" height="24" fill="white" transform="translate(0 0.494141)"/>
</clipPath>
</defs>
</svg>
