<svg width="696" height="288" viewBox="0 0 696 288" fill="none" xmlns="http://www.w3.org/2000/svg">
<path d="M0 264H696" stroke="#8692A6" stroke-opacity="0.05"/>
<path d="M15 257.129C17.0866 257.129 18.2869 255.361 18.2869 252.273C18.2869 249.207 17.0682 247.416 15 247.416C12.9318 247.416 11.7131 249.207 11.7131 252.273C11.7131 255.361 12.9134 257.129 15 257.129ZM15 256.114C13.6243 256.114 12.821 254.733 12.821 252.273C12.821 249.817 13.6335 248.413 15 248.413C16.3665 248.413 17.179 249.817 17.179 252.273C17.179 254.733 16.3757 256.114 15 256.114Z" fill="#1D2B4F"/>
<path d="M0 224H696" stroke="#8692A6" stroke-opacity="0.05"/>
<path d="M12.2186 207.545H11.0737L8.71005 209.115V210.278L11.0183 208.746H11.0737V217H12.2186V207.545ZM18.0215 217.129C20.1081 217.129 21.3084 215.361 21.3084 212.273C21.3084 209.207 20.0897 207.416 18.0215 207.416C15.9533 207.416 14.7346 209.207 14.7346 212.273C14.7346 215.361 15.9348 217.129 18.0215 217.129ZM18.0215 216.114C16.6458 216.114 15.8425 214.733 15.8425 212.273C15.8425 209.817 16.655 208.413 18.0215 208.413C19.388 208.413 20.2005 209.817 20.2005 212.273C20.2005 214.733 19.3972 216.114 18.0215 216.114Z" fill="#1D2B4F"/>
<path d="M0 184H696" stroke="#8692A6" stroke-opacity="0.05"/>
<path d="M7.98065 177H13.9451V175.984H9.55025V175.911L11.6738 173.639C13.2988 171.899 13.7789 171.086 13.7789 170.038C13.7789 168.58 12.5971 167.416 10.9352 167.416C9.27788 167.416 8.01758 168.543 8.01758 170.205H9.10707C9.10707 169.129 9.80415 168.413 10.8983 168.413C11.9231 168.413 12.7079 169.041 12.7079 170.038C12.7079 170.911 12.1955 171.557 11.1014 172.753L7.98065 176.169V177ZM18.9355 177.129C21.0222 177.129 22.2225 175.361 22.2225 172.273C22.2225 169.207 21.0037 167.416 18.9355 167.416C16.8674 167.416 15.6486 169.207 15.6486 172.273C15.6486 175.361 16.8489 177.129 18.9355 177.129ZM18.9355 176.114C17.5598 176.114 16.7566 174.733 16.7566 172.273C16.7566 169.817 17.5691 168.413 18.9355 168.413C20.302 168.413 21.1145 169.817 21.1145 172.273C21.1145 174.733 20.3113 176.114 18.9355 176.114Z" fill="#1D2B4F"/>
<path d="M0 144H696" stroke="#8692A6" stroke-opacity="0.05"/>
<path d="M10.9721 137.129C12.8049 137.129 14.1667 135.98 14.1667 134.433C14.1667 133.233 13.4558 132.36 12.2647 132.162V132.088C13.2203 131.797 13.8159 131.012 13.8159 129.946C13.8159 128.607 12.7587 127.416 11.0091 127.416C9.37482 127.416 8.01758 128.423 7.96218 129.909H9.07014C9.11168 128.967 10.0073 128.413 10.9906 128.413C12.0339 128.413 12.7079 129.046 12.7079 130.001C12.7079 130.999 11.9277 131.645 10.8059 131.645H10.0488V132.661H10.8059C12.2417 132.661 13.0403 133.39 13.0403 134.433C13.0403 135.435 12.1678 136.114 10.9537 136.114C9.85955 136.114 8.99165 135.55 8.92241 134.636H7.75906C7.8283 136.123 9.13938 137.129 10.9721 137.129ZM19.1387 137.129C21.2253 137.129 22.4256 135.361 22.4256 132.273C22.4256 129.207 21.2069 127.416 19.1387 127.416C17.0705 127.416 15.8517 129.207 15.8517 132.273C15.8517 135.361 17.052 137.129 19.1387 137.129ZM19.1387 136.114C17.763 136.114 16.9597 134.733 16.9597 132.273C16.9597 129.817 17.7722 128.413 19.1387 128.413C20.5051 128.413 21.3176 129.817 21.3176 132.273C21.3176 134.733 20.5144 136.114 19.1387 136.114Z" fill="#1D2B4F"/>
<path d="M0 104H696" stroke="#8692A6" stroke-opacity="0.05"/>
<path d="M7.52419 95.0611H11.9745V97H13.064V95.0611H14.3566V94.0455H13.064V87.5455H11.679L7.52419 94.1193V95.0611ZM11.9745 94.0455H8.76141V93.9716L11.9006 89.0043H11.9745V94.0455ZM19.1704 97.1293C21.2571 97.1293 22.4573 95.3612 22.4573 92.2727C22.4573 89.2074 21.2386 87.4162 19.1704 87.4162C17.1022 87.4162 15.8835 89.2074 15.8835 92.2727C15.8835 95.3612 17.0838 97.1293 19.1704 97.1293ZM19.1704 96.1136C17.7947 96.1136 16.9914 94.7333 16.9914 92.2727C16.9914 89.8168 17.8039 88.4134 19.1704 88.4134C20.5369 88.4134 21.3494 89.8168 21.3494 92.2727C21.3494 94.7333 20.5461 96.1136 19.1704 96.1136Z" fill="#1D2B4F"/>
<path d="M0 64H696" stroke="#8692A6" stroke-opacity="0.05"/>
<path d="M10.9161 57.1293C12.7166 57.1293 14.0369 55.7997 14.0369 53.9901C14.0369 52.1573 12.7627 50.8139 11.0269 50.8139C10.3899 50.8139 9.77126 51.0401 9.38348 51.3494H9.32808L9.66047 48.5611H13.6122V47.5455H8.70024L8.1278 52.1989L9.19882 52.3281C9.59122 52.0465 10.2606 51.8434 10.8423 51.848C12.0472 51.8572 12.9289 52.7713 12.9289 54.0085C12.9289 55.2227 12.0795 56.1136 10.9161 56.1136C9.94669 56.1136 9.17574 55.4904 9.08802 54.6364H7.98007C8.04932 56.0767 9.29115 57.1293 10.9161 57.1293ZM18.9546 57.1293C21.0412 57.1293 22.2415 55.3612 22.2415 52.2727C22.2415 49.2074 21.0228 47.4162 18.9546 47.4162C16.8864 47.4162 15.6677 49.2074 15.6677 52.2727C15.6677 55.3612 16.8679 57.1293 18.9546 57.1293ZM18.9546 56.1136C17.5789 56.1136 16.7756 54.7333 16.7756 52.2727C16.7756 49.8168 17.5881 48.4134 18.9546 48.4134C20.3211 48.4134 21.1336 49.8168 21.1336 52.2727C21.1336 54.7333 20.3303 56.1136 18.9546 56.1136Z" fill="#1D2B4F"/>
<path d="M0 24H696" stroke="#8692A6" stroke-opacity="0.05"/>
<path d="M10.9992 17.1293C12.9105 17.1523 14.1569 15.712 14.1569 13.9531C14.1569 12.125 12.8043 10.8139 11.1839 10.8139C10.2098 10.8139 9.37425 11.2894 8.8572 12.0696H8.78334C8.78795 9.76598 9.68355 8.43182 11.147 8.43182C12.1441 8.43182 12.7443 9.05966 12.9566 9.90909H14.0831C13.8522 8.44105 12.735 7.41619 11.147 7.41619C9.01878 7.41619 7.71231 9.29972 7.71231 12.642C7.71231 16.1367 9.44811 17.1108 10.9992 17.1293ZM10.9992 16.1136C9.81281 16.1136 8.94491 15.1026 8.94953 13.9716C8.95415 12.8406 9.86359 11.8295 11.0362 11.8295C12.1949 11.8295 13.049 12.7805 13.049 13.9531C13.049 15.1534 12.158 16.1136 10.9992 16.1136ZM19.0562 17.1293C21.1428 17.1293 22.3431 15.3612 22.3431 12.2727C22.3431 9.20739 21.1243 7.41619 19.0562 7.41619C16.988 7.41619 15.7692 9.20739 15.7692 12.2727C15.7692 15.3612 16.9695 17.1293 19.0562 17.1293ZM19.0562 16.1136C17.6804 16.1136 16.8772 14.7333 16.8772 12.2727C16.8772 9.81676 17.6897 8.41335 19.0562 8.41335C20.4226 8.41335 21.2351 9.81676 21.2351 12.2727C21.2351 14.7333 20.4319 16.1136 19.0562 16.1136Z" fill="#1D2B4F"/>
<path d="M54.5415 271.545V278.249C54.5369 279.338 54.0291 279.92 53.1243 279.92C52.2887 279.92 51.707 279.421 51.7024 278.636H50.2852C50.2852 280.234 51.4854 281.129 53.0874 281.129C54.8232 281.129 55.9588 280.067 55.9634 278.249V271.545H54.5415ZM59.9925 281.157C61.165 281.157 61.8252 280.561 62.0883 280.031H62.1437V281H63.4917V276.291C63.4917 274.228 61.8667 273.817 60.7403 273.817C59.4569 273.817 58.2751 274.334 57.8135 275.626L59.1107 275.922C59.3138 275.419 59.8309 274.934 60.7588 274.934C61.6498 274.934 62.1068 275.4 62.1068 276.203V276.236C62.1068 276.739 61.5898 276.73 60.3156 276.877C58.9722 277.034 57.5965 277.385 57.5965 278.996C57.5965 280.391 58.6444 281.157 59.9925 281.157ZM60.2925 280.049C59.5123 280.049 58.9491 279.698 58.9491 279.015C58.9491 278.276 59.6047 278.013 60.4033 277.907C60.8511 277.847 61.9129 277.727 62.1114 277.528V278.442C62.1114 279.283 61.442 280.049 60.2925 280.049ZM66.7106 276.79C66.7106 275.659 67.4031 275.012 68.3633 275.012C69.3004 275.012 69.8683 275.626 69.8683 276.656V281H71.2486V276.49C71.2486 274.735 70.2837 273.817 68.8342 273.817C67.7678 273.817 67.0707 274.311 66.7429 275.063H66.6552V273.909H65.3303V281H66.7106V276.79Z" fill="#1D2B4F"/>
<rect x="56" y="144" width="4" height="120" fill="#06A77D"/>
<rect x="62" y="231" width="4" height="33" fill="#FF8080"/>
<path d="M104.607 281H106.033V276.877H110.049V275.654H106.033V272.773H110.47V271.545H104.607V281ZM114.649 281.143C116.195 281.143 117.289 280.381 117.603 279.227L116.297 278.992C116.047 279.661 115.447 280.003 114.662 280.003C113.481 280.003 112.687 279.237 112.65 277.87H117.691V277.381C117.691 274.819 116.158 273.817 114.552 273.817C112.576 273.817 111.274 275.322 111.274 277.501C111.274 279.703 112.557 281.143 114.649 281.143ZM112.654 276.836C112.71 275.83 113.439 274.957 114.561 274.957C115.632 274.957 116.334 275.751 116.338 276.836H112.654ZM119.333 281H120.681V279.897H120.797C121.046 280.349 121.554 281.138 122.846 281.138C124.564 281.138 125.81 279.763 125.81 277.468C125.81 275.169 124.545 273.817 122.832 273.817C121.517 273.817 121.041 274.62 120.797 275.059H120.713V271.545H119.333V281ZM120.686 277.455C120.686 275.973 121.332 274.989 122.537 274.989C123.788 274.989 124.416 276.047 124.416 277.455C124.416 278.876 123.77 279.961 122.537 279.961C121.351 279.961 120.686 278.946 120.686 277.455Z" fill="#1D2B4F"/>
<rect x="110" y="207" width="4" height="58" fill="#06A77D"/>
<rect x="116" y="244" width="4" height="21" fill="#FF8080"/>
<path d="M158.01 271.545V281H159.367V274.154H159.455L162.243 280.986H163.37L166.158 274.158H166.246V281H167.603V271.545H165.872L162.862 278.895H162.751L159.741 271.545H158.01ZM171.63 281.157C172.802 281.157 173.462 280.561 173.726 280.031H173.781V281H175.129V276.291C175.129 274.228 173.504 273.817 172.378 273.817C171.094 273.817 169.912 274.334 169.451 275.626L170.748 275.922C170.951 275.419 171.468 274.934 172.396 274.934C173.287 274.934 173.744 275.4 173.744 276.203V276.236C173.744 276.739 173.227 276.73 171.953 276.877C170.609 277.034 169.234 277.385 169.234 278.996C169.234 280.391 170.282 281.157 171.63 281.157ZM171.93 280.049C171.15 280.049 170.586 279.698 170.586 279.015C170.586 278.276 171.242 278.013 172.041 277.907C172.488 277.847 173.55 277.727 173.749 277.528V278.442C173.749 279.283 173.079 280.049 171.93 280.049ZM176.967 281H178.348V276.67C178.348 275.742 179.063 275.072 180.042 275.072C180.328 275.072 180.651 275.123 180.762 275.156V273.835C180.624 273.817 180.351 273.803 180.176 273.803C179.345 273.803 178.634 274.274 178.375 275.036H178.302V273.909H176.967V281Z" fill="#1D2B4F"/>
<rect x="164" y="200" width="4" height="64" fill="#06A77D"/>
<rect x="170" y="144" width="4" height="120" fill="#FF8080"/>
<path d="M213.78 281L214.648 278.498H218.341L219.204 281H220.718L217.316 271.545H215.668L212.266 281H213.78ZM215.063 277.298L216.457 273.263H216.531L217.925 277.298H215.063ZM221.973 283.659H223.353V279.897H223.436C223.686 280.349 224.193 281.138 225.486 281.138C227.203 281.138 228.45 279.763 228.45 277.468C228.45 275.169 227.185 273.817 225.472 273.817C224.156 273.817 223.681 274.62 223.436 275.059H223.321V273.909H221.973V283.659ZM223.325 277.455C223.325 275.973 223.972 274.989 225.177 274.989C226.428 274.989 227.056 276.047 227.056 277.455C227.056 278.876 226.409 279.961 225.177 279.961C223.99 279.961 223.325 278.946 223.325 277.455ZM229.996 281H231.377V276.67C231.377 275.742 232.092 275.072 233.071 275.072C233.357 275.072 233.68 275.123 233.791 275.156V273.835C233.653 273.817 233.38 273.803 233.205 273.803C232.374 273.803 231.663 274.274 231.404 275.036H231.33V273.909H229.996V281Z" fill="#1D2B4F"/>
<rect x="218" y="39" width="4" height="225" fill="#06A77D"/>
<rect x="224" y="184" width="4" height="80" fill="#FF8080"/>
<rect x="263" y="24" width="29" height="240" fill="#06A77D" fill-opacity="0.04"/>
<path d="M264.943 271.545V281H266.301V274.154H266.388L269.177 280.986H270.303L273.092 274.158H273.179V281H274.537V271.545H272.805L269.795 278.895H269.685L266.675 271.545H264.943ZM278.563 281.157C279.736 281.157 280.396 280.561 280.659 280.031H280.715V281H282.063V276.291C282.063 274.228 280.438 273.817 279.311 273.817C278.028 273.817 276.846 274.334 276.384 275.626L277.682 275.922C277.885 275.419 278.402 274.934 279.33 274.934C280.221 274.934 280.678 275.4 280.678 276.203V276.236C280.678 276.739 280.161 276.73 278.886 276.877C277.543 277.034 276.167 277.385 276.167 278.996C276.167 280.391 277.215 281.157 278.563 281.157ZM278.863 280.049C278.083 280.049 277.52 279.698 277.52 279.015C277.52 278.276 278.175 278.013 278.974 277.907C279.422 277.847 280.484 277.727 280.682 277.528V278.442C280.682 279.283 280.013 280.049 278.863 280.049ZM284.52 283.659C285.66 283.659 286.38 283.064 286.791 281.946L289.722 273.923L288.231 273.909L286.436 279.412H286.362L284.566 273.909H283.089L285.683 281.092L285.512 281.563C285.161 282.505 284.667 282.583 283.91 282.376L283.578 283.507C283.744 283.581 284.104 283.659 284.52 283.659Z" fill="#1D2B4F"/>
<rect x="272" y="156" width="4" height="108" fill="#06A77D"/>
<rect x="278" y="184" width="4" height="80" fill="#FF8080"/>
<path d="M324.377 271.545V278.249C324.372 279.338 323.864 279.92 322.959 279.92C322.124 279.92 321.542 279.421 321.537 278.636H320.12C320.12 280.234 321.32 281.129 322.922 281.129C324.658 281.129 325.794 280.067 325.798 278.249V271.545H324.377ZM332.256 278.059C332.26 279.264 331.365 279.837 330.589 279.837C329.735 279.837 329.144 279.218 329.144 278.253V273.909H327.764V278.419C327.764 280.178 328.729 281.092 330.091 281.092C331.157 281.092 331.882 280.529 332.21 279.772H332.283V281H333.641V273.909H332.256V278.059ZM336.876 276.79C336.876 275.659 337.568 275.012 338.528 275.012C339.465 275.012 340.033 275.626 340.033 276.656V281H341.414V276.49C341.414 274.735 340.449 273.817 338.999 273.817C337.933 273.817 337.236 274.311 336.908 275.063H336.82V273.909H335.495V281H336.876V276.79Z" fill="#1D2B4F"/>
<rect x="326" y="129" width="4" height="135" fill="#06A77D"/>
<rect x="332" y="184" width="4" height="80" fill="#FF8080"/>
<path d="M380.643 271.545V278.249C380.638 279.338 380.13 279.92 379.225 279.92C378.39 279.92 377.808 279.421 377.803 278.636H376.386C376.386 280.234 377.587 281.129 379.188 281.129C380.924 281.129 382.06 280.067 382.064 278.249V271.545H380.643ZM388.522 278.059C388.526 279.264 387.631 279.837 386.855 279.837C386.001 279.837 385.41 279.218 385.41 278.253V273.909H384.03V278.419C384.03 280.178 384.995 281.092 386.357 281.092C387.423 281.092 388.148 280.529 388.476 279.772H388.549V281H389.907V273.909H388.522V278.059ZM393.142 271.545H391.761V281H393.142V271.545Z" fill="#1D2B4F"/>
<rect x="380" y="184" width="4" height="80" fill="#06A77D"/>
<rect x="386" y="244" width="4" height="20" fill="#FF8080"/>
<path d="M428.409 281L429.277 278.498H432.97L433.833 281H435.347L431.945 271.545H430.297L426.894 281H428.409ZM429.692 277.298L431.086 273.263H431.16L432.554 277.298H429.692ZM441.094 278.059C441.098 279.264 440.203 279.837 439.427 279.837C438.573 279.837 437.982 279.218 437.982 278.253V273.909H436.602V278.419C436.602 280.178 437.567 281.092 438.928 281.092C439.995 281.092 440.72 280.529 441.047 279.772H441.121V281H442.479V273.909H441.094V278.059ZM447.306 283.807C449.111 283.807 450.505 282.98 450.505 281.157V273.909H449.153V275.059H449.051C448.807 274.62 448.317 273.817 446.997 273.817C445.284 273.817 444.024 275.169 444.024 277.427C444.024 279.689 445.312 280.894 446.988 280.894C448.29 280.894 448.793 280.16 449.042 279.707H449.13V281.102C449.13 282.214 448.368 282.694 447.32 282.694C446.171 282.694 445.723 282.117 445.478 281.711L444.292 282.2C444.666 283.068 445.612 283.807 447.306 283.807ZM447.292 279.749C446.06 279.749 445.418 278.803 445.418 277.408C445.418 276.047 446.046 274.989 447.292 274.989C448.497 274.989 449.144 275.973 449.144 277.408C449.144 278.872 448.483 279.749 447.292 279.749Z" fill="#1D2B4F"/>
<rect x="434" y="80" width="4" height="184" fill="#06A77D"/>
<rect x="440" y="184" width="4" height="80" fill="#FF8080"/>
<path d="M487.186 274.029H488.561C488.52 272.515 487.181 271.416 485.26 271.416C483.363 271.416 481.909 272.501 481.909 274.131C481.909 275.446 482.851 276.217 484.369 276.628L485.487 276.933C486.498 277.201 487.278 277.533 487.278 278.373C487.278 279.297 486.396 279.906 485.182 279.906C484.083 279.906 483.169 279.417 483.086 278.387H481.655C481.747 280.1 483.072 281.157 485.191 281.157C487.412 281.157 488.691 279.989 488.691 278.387C488.691 276.684 487.172 276.023 485.971 275.728L485.048 275.488C484.309 275.299 483.326 274.952 483.331 274.048C483.331 273.244 484.065 272.649 485.228 272.649C486.313 272.649 487.084 273.157 487.186 274.029ZM493.34 281.143C494.887 281.143 495.981 280.381 496.295 279.227L494.989 278.992C494.739 279.661 494.139 280.003 493.354 280.003C492.172 280.003 491.378 279.237 491.342 277.87H496.383V277.381C496.383 274.819 494.85 273.817 493.244 273.817C491.268 273.817 489.966 275.322 489.966 277.501C489.966 279.703 491.249 281.143 493.34 281.143ZM491.346 276.836C491.402 275.83 492.131 274.957 493.253 274.957C494.324 274.957 495.025 275.751 495.03 276.836H491.346ZM497.914 283.659H499.295V279.897H499.378C499.627 280.349 500.135 281.138 501.427 281.138C503.145 281.138 504.391 279.763 504.391 277.468C504.391 275.169 503.126 273.817 501.414 273.817C500.098 273.817 499.622 274.62 499.378 275.059H499.262V273.909H497.914V283.659ZM499.267 277.455C499.267 275.973 499.913 274.989 501.118 274.989C502.369 274.989 502.997 276.047 502.997 277.455C502.997 278.876 502.351 279.961 501.118 279.961C499.932 279.961 499.267 278.946 499.267 277.455Z" fill="#1D2B4F"/>
<rect x="488" y="111" width="4" height="154" fill="#06A77D"/>
<rect x="494" y="185" width="4" height="80" fill="#FF8080"/>
<path d="M545.149 276.273C545.149 273.249 543.34 271.416 540.893 271.416C538.437 271.416 536.632 273.249 536.632 276.273C536.632 279.292 538.437 281.129 540.893 281.129C543.34 281.129 545.149 279.297 545.149 276.273ZM543.737 276.273C543.737 278.576 542.518 279.827 540.893 279.827C539.263 279.827 538.049 278.576 538.049 276.273C538.049 273.969 539.263 272.718 540.893 272.718C542.518 272.718 543.737 273.969 543.737 276.273ZM549.804 281.143C551.48 281.143 552.565 280.137 552.717 278.756H551.374C551.198 279.523 550.603 279.975 549.813 279.975C548.645 279.975 547.893 279.001 547.893 277.455C547.893 275.936 548.659 274.98 549.813 274.98C550.69 274.98 551.226 275.534 551.374 276.199H552.717C552.569 274.768 551.401 273.817 549.79 273.817C547.791 273.817 546.499 275.322 546.499 277.487C546.499 279.624 547.745 281.143 549.804 281.143ZM557.503 273.909H556.049V272.21H554.669V273.909H553.63V275.017H554.669V279.204C554.664 280.492 555.647 281.115 556.737 281.092C557.175 281.088 557.471 281.005 557.632 280.945L557.383 279.804C557.291 279.823 557.12 279.864 556.898 279.864C556.451 279.864 556.049 279.717 556.049 278.918V275.017H557.503V273.909Z" fill="#1D2B4F"/>
<rect x="542" y="57" width="4" height="207" fill="#06A77D"/>
<rect x="548" y="92" width="4" height="172" fill="#FF8080"/>
<path d="M646.906 281C649.786 281 651.453 279.213 651.453 276.259C651.453 273.318 649.786 271.545 647.003 271.545H643.845V281H646.906ZM645.271 279.754V272.792H646.915C648.983 272.792 650.049 274.029 650.049 276.259C650.049 278.498 648.983 279.754 646.827 279.754H645.271ZM656.172 281.143C657.719 281.143 658.813 280.381 659.127 279.227L657.82 278.992C657.571 279.661 656.971 280.003 656.186 280.003C655.004 280.003 654.21 279.237 654.173 277.87H659.214V277.381C659.214 274.819 657.682 273.817 656.075 273.817C654.099 273.817 652.797 275.322 652.797 277.501C652.797 279.703 654.081 281.143 656.172 281.143ZM654.178 276.836C654.233 275.83 654.962 274.957 656.084 274.957C657.155 274.957 657.857 275.751 657.862 276.836H654.178ZM663.733 281.143C665.408 281.143 666.493 280.137 666.646 278.756H665.302C665.127 279.523 664.531 279.975 663.742 279.975C662.574 279.975 661.821 279.001 661.821 277.455C661.821 275.936 662.588 274.98 663.742 274.98C664.619 274.98 665.155 275.534 665.302 276.199H666.646C666.498 274.768 665.33 273.817 663.719 273.817C661.72 273.817 660.427 275.322 660.427 277.487C660.427 279.624 661.674 281.143 663.733 281.143Z" fill="#1D2B4F"/>
<rect x="650" y="104" width="4" height="160" fill="#06A77D"/>
<rect x="656" y="217" width="4" height="47" fill="#FF8080"/>
<path d="M597.343 271.545H595.93V278.489H595.842L591.032 271.545H589.712V281H591.138V274.066H591.226L596.032 281H597.343V271.545ZM602.3 281.143C604.298 281.143 605.605 279.68 605.605 277.487C605.605 275.28 604.298 273.817 602.3 273.817C600.301 273.817 598.994 275.28 598.994 277.487C598.994 279.68 600.301 281.143 602.3 281.143ZM602.304 279.984C600.998 279.984 600.388 278.844 600.388 277.482C600.388 276.125 600.998 274.971 602.304 274.971C603.601 274.971 604.211 276.125 604.211 277.482C604.211 278.844 603.601 279.984 602.304 279.984ZM612.958 273.909H611.476L609.685 279.366H609.611L607.815 273.909H606.333L608.909 281H610.386L612.958 273.909Z" fill="#1D2B4F"/>
<rect x="596" y="137" width="4" height="127" fill="#06A77D"/>
<rect x="602" y="184" width="4" height="80" fill="#FF8080"/>
</svg>
